<?xml version="1.0" encoding="UTF-8"?>
<!DOCTYPE svg PUBLIC "-//W3C//DTD SVG 1.1//EN" "http://www.w3.org/Graphics/SVG/1.1/DTD/svg11.dtd">
<!-- Creator: CorelDRAW -->
<svg xmlns="http://www.w3.org/2000/svg" xml:space="preserve" width="119.062mm" height="119.062mm" version="1.1" style="shape-rendering:geometricPrecision; text-rendering:geometricPrecision; image-rendering:optimizeQuality; fill-rule:evenodd; clip-rule:evenodd"
viewBox="0 0 11906.24 11906.24"
 xmlns:xlink="http://www.w3.org/1999/xlink"
 xmlns:xodm="http://www.corel.com/coreldraw/odm/2003">
 <defs>
  <style type="text/css">
   <![CDATA[
    .str1 {stroke:#373435;stroke-width:20;stroke-miterlimit:22.9256}
    .str0 {stroke:#C231B6;stroke-width:20;stroke-miterlimit:22.9256}
    .fil1 {fill:#3F3F41}
    .fil0 {fill:#C231B6}
    .fil2 {fill:white}
   ]]>
  </style>
 </defs>
 <g id="Capa_x0020_1">
  <metadata id="CorelCorpID_0Corel-Layer"/>
  <polygon class="fil0 str0" points="3149.89,7135.55 11439.1,4464.81 7599.15,3822.37 5968.53,409.18 4170.94,3862.68 420.92,4358.74 "/>
  <polygon class="fil1 str1" points="11403.87,4716.41 3114.66,7387.15 2427.63,11106.93 5911.83,9369.59 9237.25,11172.47 8661.61,7321.94 "/>
  <g id="_2931938660192">
   <polygon class="fil2" points="7215.69,10076.48 6819.89,8545 8379.64,6858.78 8365.59,6226.45 7747.31,5130.41 5990.84,5397.39 5976.78,6057.83 6271.87,6226.45 7157.14,6184.3 7213.34,6591.8 5470.92,8348.28 5640.73,9504.78 5063.42,8390.43 5330.4,8235.86 6201.61,6886.89 6215.66,6535.59 4571.6,7308.44 3869.01,6507.49 3911.17,7715.94 4557.55,8811.99 4529.45,10076.65 "/>
   <polygon class="fil2" points="3826.86,5903.26 4599.71,6971.2 4951,6788.52 4248.41,5594.12 "/>
   <polygon class="fil2" points="5133.67,4947.74 5751.95,6423.18 5232.04,6648.01 4445.14,5256.88 "/>
   <polygon class="fil2" points="6103.25,4357.56 6384.29,5130.41 5836.27,5313.08 5737.9,5664.38 5316.35,4652.65 "/>
   <polygon class="fil2" points="7438.17,4919.63 6651.27,5088.25 6328.08,4287.3 7058.77,4202.99 "/>
  </g>
 </g>
</svg>
